Coordinates
version=1
nRows=29
nColumns=24
inDegrees=yes

Units are S.I. units (second, meters, Newtons, ...)
Angles are in degrees.

endheader
time	pelvis_tilt	pelvis_list	pelvis_rotation	pelvis_tx	pelvis_ty	pelvis_tz	hip_flexion_r	hip_adduction_r	hip_rotation_r	knee_angle_r	ankle_angle_r	subtalar_angle_r	mtp_angle_r	hip_flexion_l	hip_adduction_l	hip_rotation_l	knee_angle_l	ankle_angle_l	subtalar_angle_l	mtp_angle_l	lumbar_extension	lumbar_bending	lumbar_rotation
      1.52533333	     -0.26053188	      7.11265352	      0.87096921	      0.51875638	      0.99027790	      0.31727083	     17.50726413	     -9.12442016	      0.32002459	    -65.96005283	      5.48294333	     -8.99875821	      4.05804209	      9.22561212	     13.36225569	      4.06222082	    -14.62188737	      4.01680393	    -15.46057176	     -0.99264421	      2.56135707	     -5.36997730	      5.66881719
      1.52950000	     -0.16355816	      7.03224314	      1.00736060	      0.52358766	      0.99101081	      0.31701922	     17.99127319	     -9.01799391	      0.36417068	    -65.53645629	      5.96151759	     -9.10326391	      3.87363156	      8.59076336	     13.28700904	      4.29337714	    -14.25425535	      4.09412299	    -15.42902885	     -1.03818405	      2.42663816	     -5.28595129	      5.51058002
      1.53366667	     -0.08152122	      6.94312405	      1.14816180	      0.52838171	      0.99169329	      0.31678485	     18.48096447	     -8.89472234	      0.41438885	    -65.07198519	      6.42910062	     -9.18532107	      3.74896064	      7.98558299	     13.19668027	      4.52287126	    -13.90819980	      4.17777395	    -15.36236794	     -1.06641645	      2.29215398	     -5.18435428	      5.38398731
      1.53783333	     -0.01587516	      6.83906833	      1.29937894	      0.53320582	      0.99233057	      0.31653120	     18.96478851	     -8.76687584	      0.43409256	    -64.55261975	      6.87159439	     -9.26150833	      3.67867959	      7.40448827	     13.08600566	      4.72368298	    -13.57593529	      4.26744256	    -15.28248857	     -1.08048011	      2.20938126	     -5.06772636	      5.27372635
      1.54200000	      0.11454836	      6.77310923	      1.44574470	      0.53802000	      0.99301316	      0.31626814	     19.36566638	     -8.68615766	      0.45757896	    -63.99288821	      7.23438901	     -9.30625740	      3.33421765	      6.72211513	     13.01882075	      5.00795103	    -13.17684350	      4.28254516	    -15.32439584	     -1.15547328	      2.02572434	     -5.01454305	      4.96334844
      1.54616667	      0.16360347	      6.68561331	      1.58282545	      0.54278317	      0.99351246	      0.31604824	     19.86049992	     -8.57002803	      0.50130172	    -63.42077053	      7.67035352	     -9.37698231	      3.27001766	      6.18230046	     12.91670371	      5.18057361	    -12.87752171	      4.42667450	    -15.22184688	     -1.16514884	      1.94103174	     -4.90847221	      4.89860803
      1.55033333	      0.31210212	      6.62427116	      1.71120946	      0.54758069	      0.99414317	      0.31583455	     20.21948651	     -8.48399253	      0.54424376	    -62.78697379	      8.02070334	     -9.44581844	      3.11106907	      5.50267612	     12.83810038	      5.38984250	    -12.51342727	      4.52094852	    -15.15531399	     -1.19296497	      1.73097790	     -4.85681908	      4.68004547
      1.55450000	      0.38918760	      6.54235534	      1.87230796	      0.55234208	      0.99463010	      0.31558102	     20.63936141	     -8.38831843	      0.55224120	    -62.11671547	      8.35432192	     -9.48925890	      2.83752406	      4.91870232	     12.73977258	      5.62520935	    -12.18192035	      4.56711822	    -15.11572943	     -1.24007242	      1.60822736	     -4.77325235	      4.44999862
      1.55866667	      0.43506476	      6.46993902	      2.02019313	      0.55707234	      0.99500940	      0.31535883	     21.09312667	     -8.29400663	      0.58685368	    -61.42982758	      8.72216661	     -9.54327545	      2.76137521	      4.39771481	     12.64736967	      5.81228611	    -11.90539523	      4.71243481	    -15.03820255	     -1.24905344	      1.52225645	     -4.69869773	      4.36885433
      1.56283333	      0.53967742	      6.39374285	      2.16651174	      0.56182154	      0.99545860	      0.31513231	     21.45576195	     -8.20005963	      0.60448506	    -60.68488521	      9.02137097	     -9.61081745	      2.66466730	      3.79956479	     12.54535726	      6.00864510	    -11.59832225	      4.82110967	    -14.96047924	     -1.26050087	      1.36539568	     -4.61981406	      4.20241526
      1.56700000	      0.63614929	      6.33053645	      2.31077380	      0.56655955	      0.99584937	      0.31491105	     21.81837081	     -8.12293158	      0.62070454	    -59.91548804	      9.29216031	     -9.68600998	      2.54905988	      3.21018720	     12.45515795	      6.21350234	    -11.28727655	      4.92324432	    -14.90436348	     -1.27363045	      1.21285577	     -4.55310949	      4.00747809
      1.57116667	      0.68550437	      6.27225213	      2.45978441	      0.57126907	      0.99611945	      0.31468100	     22.22553113	     -8.05480404	      0.63848564	    -59.12452377	      9.53644817	     -9.76141364	      2.44733269	      2.68934648	     12.37086281	      6.41231801	    -11.00713561	      5.03096484	    -14.84714679	     -1.28376719	      1.11208829	     -4.49073514	      3.84360829
      1.57533333	      0.76401628	      6.22044626	      2.60354786	      0.57598543	      0.99639573	      0.31445928	     22.58278995	     -7.99425103	      0.65125149	    -58.29566308	      9.75363450	     -9.85036543	      2.33456761	      2.13595964	     12.28926622	      6.61044359	    -10.72430628	      5.14301824	    -14.79414849	     -1.29395815	      0.97775252	     -4.43579458	      3.65948225
      1.57950000	      0.84005590	      6.17060642	      2.74317556	      0.58069257	      0.99664529	      0.31424929	     22.92773128	     -7.93393116	      0.66721663	    -57.43221298	      9.93907701	     -9.95421756	      2.21531533	      1.58896740	     12.20650282	      6.80364012	    -10.44468927	      5.25366298	    -14.74126569	     -1.30400980	      0.84659996	     -4.38414367	      3.48081001
      1.58366667	      0.90594984	      6.13441177	      2.88368268	      0.58538904	      0.99682800	      0.31403712	     23.27477092	     -7.89435226	      0.67446430	    -56.55032024	     10.10886138	    -10.06158326	      2.09787460	      1.05756409	     12.13680063	      6.99881202	    -10.17272778	      5.36654690	    -14.69027893	     -1.31308588	      0.71933729	     -4.34727827	      3.30975240
      1.58783333	      0.96882569	      6.09564172	      3.01797733	      0.59007938	      0.99696698	      0.31383816	     23.61100476	     -7.84983383	      0.68262707	    -55.63815198	     10.25119850	    -10.18009776	      1.97787377	      0.53605978	     12.06187642	      7.18683865	     -9.91136901	      5.48634943	    -14.64340753	     -1.32156883	      0.59358324	     -4.30702399	      3.14049378
      1.59200000	      1.02622783	      6.07210992	      3.14860832	      0.59476030	      0.99706316	      0.31364163	     23.94039691	     -7.82201637	      0.69749730	    -54.70083230	     10.37284855	    -10.31370822	      1.84250255	      0.02472479	     12.00210716	      7.37593683	     -9.65766448	      5.60320585	    -14.60285445	     -1.33161293	      0.47904745	     -4.28338572	      2.96330030
      1.59616667	      1.07812393	      6.05942725	      3.25977498	      0.59944591	      0.99710694	      0.31347118	     24.26983870	     -7.80008932	      0.72559941	    -53.74587772	     10.45342418	    -10.48033823	      1.60537941	     -0.48856047	     11.95218122	      7.55800967	     -9.38344262	      5.71538964	    -14.58990355	     -1.35252707	      0.36266932	     -4.28336321	      2.73218629
      1.60033333	      1.14340792	      6.04358778	      3.37713373	      0.60412469	      0.99715356	      0.31329497	     24.56076106	     -7.77866909	      0.73844443	    -52.75163326	     10.54535234	    -10.61001246	      1.37717523	     -1.00346519	     11.89557573	      7.73933653	     -9.13646142	      5.83451496	    -14.54460829	     -1.37165285	      0.23802659	     -4.26564390	      2.58563673
      1.60450000	      1.15354575	      6.02762109	      3.49840345	      0.60880353	      0.99706957	      0.31311385	     24.90605740	     -7.76336967	      0.73587515	    -51.75945257	     10.71678950	    -10.58903438	     -2.54444415	     -1.46122865	     11.84359834	      7.95872190	     -8.88501583	      5.91978225	    -14.59143182	     -1.77653957	      0.17132505	     -4.25012075	      2.45880977
      1.60866667	      1.17781807	      6.01563939	      3.62350904	      0.61347161	      0.99698083	      0.31293561	     25.21334641	     -7.75531689	      0.72591746	    -50.72340904	     10.79139569	    -10.74631491	     -2.55667651	     -1.90755722	     11.78912540	      8.12046502	     -8.68960077	      6.09734453	    -14.48275001	     -1.76998545	      0.08987808	     -4.23686594	      2.36087884
      1.61283333	      1.19565496	      6.01417674	      3.72264337	      0.61815046	      0.99684079	      0.31279660	     25.52265246	     -7.74905808	      0.73660252	    -49.67310876	     10.83544875	    -10.88769094	     -2.57384621	     -2.35689332	     11.74421379	      8.26908771	     -8.46785838	      6.24099953	    -14.41373640	     -1.76595044	      0.01030570	     -4.24281624	      2.22421570
      1.61700000	      1.22586251	      6.02721977	      3.80893293	      0.62282665	      0.99668253	      0.31267192	     25.80626242	     -7.75389170	      0.75542648	    -48.60244957	     10.87351402	    -11.01886094	     -2.60012560	     -2.82340710	     11.71409128	      8.42884323	     -8.23859578	      6.37207632	    -14.37582802	     -1.76483859	     -0.08380799	     -4.26184234	      2.06574411
      1.62116667	      1.21492675	      6.03878200	      3.90719988	      0.62751942	      0.99643428	      0.31251194	     26.11841004	     -7.77289917	      0.74399033	    -47.51433454	     10.92904830	    -11.08901749	     -2.61791688	     -3.23615825	     11.68621035	      8.59213610	     -8.03382179	      6.51744721	    -14.33171164	     -1.76411078	     -0.11708214	     -4.26840767	      1.97992664
      1.62533333	      1.21672353	      6.05077097	      3.98589496	      0.63221194	      0.99616947	      0.31239883	     26.40453919	     -7.78069064	      0.74484664	    -46.40356083	     10.96153253	    -11.16237383	     -2.63888648	     -3.66784637	     11.65452956	      8.74787222	     -7.81342844	      6.65569508	    -14.30380858	     -1.76614577	     -0.18440007	     -4.29119040	      1.86522883
      1.62950000	      1.22134955	      6.07529635	      4.05990047	      0.63692893	      0.99589271	      0.31227874	     26.66992228	     -7.80395540	      0.73950221	    -45.26984404	     10.99889791	    -11.20277448	     -2.65685727	     -4.10365673	     11.63602529	      8.90470789	     -7.59652907	      6.79381718	    -14.27090150	     -1.76945012	     -0.23036245	     -4.30644952	      1.76695610
      1.63366667	      1.20153627	      6.09291943	      4.12804924	      0.64163313	      0.99552911	      0.31218677	     26.95365702	     -7.81739452	      0.73026861	    -44.12457181	     11.03054235	    -11.21782948	     -2.67407448	     -4.50514334	     11.61040495	      9.05135586	     -7.39041470	      6.93468782	    -14.25240255	     -1.77538609	     -0.27677815	     -4.34534033	      1.66614427
      1.63783333	      1.17088088	      6.12937926	      4.19153744	      0.64635616	      0.99512495	      0.31209128	     27.23657760	     -7.85183314	      0.72170456	    -42.96741495	     11.06301660	    -11.19654438	     -2.68914452	     -4.89677023	     11.60634276	      9.20349468	     -7.18640422	      7.07332797	    -14.23412876	     -1.78426306	     -0.29728322	     -4.38714565	      1.56963868
      1.64200000	      1.15271656	      6.15109743	      4.24615451	      0.65110463	      0.99471436	      0.31201500	     27.48464220	     -7.86787285	      0.69928222	    -41.78020291	     11.09491350	    -11.14623122	     -2.70003601	     -5.30262183	     11.58318187	      9.34251466	     -6.97965544	      7.21918638	    -14.20939661	     -1.79463155	     -0.32760569	     -4.41111436	      1.48347864
